HIERARCHY
ROOT Hips
{
	OFFSET	0	0	0
	CHANNELS 6  Xposition Yposition Zposition Xrotation Yrotation Zrotation
	JOINT Spine
	{
		OFFSET	0	6.81137	1.36784
		CHANNELS 3  Xrotation Yrotation Zrotation
		JOINT Spine1
		{
			OFFSET	0	11.6648	-2.083
			CHANNELS 3  Xrotation Yrotation Zrotation
			JOINT Spine2
			{
				OFFSET	0	8.84235	0.947767
				CHANNELS 3  Xrotation Yrotation Zrotation
				JOINT Spine3
				{
					OFFSET	0	10.5817	3.14534
					CHANNELS 3  Xrotation Yrotation Zrotation
					JOINT Spine4
					{
						OFFSET	0	15.6642	-1.60391
						CHANNELS 3  Xrotation Yrotation Zrotation
						JOINT Neck
						{
							OFFSET	0	7.47798	-5.23875
							CHANNELS 3  Xrotation Yrotation Zrotation
							JOINT Head
							{
								OFFSET	0	8.97775	-2.68707
								CHANNELS 3  Xrotation Yrotation Zrotation
								End Site
								{
									OFFSET	0	18.7262	-0.906107
								}
							}
						}
					}
					JOINT LeftShoulder
					{
						OFFSET	-4.49929	19.0387	-8.97775
						CHANNELS 3  Xrotation Yrotation Zrotation
						JOINT LeftArm
						{
							OFFSET	-9.81417	-2.68707	3.44739
							CHANNELS 3  Xrotation Yrotation Zrotation
							JOINT LeftForeArm
							{
								OFFSET	-33.0157	-1.50689	2.35663
								CHANNELS 3  Xrotation Yrotation Zrotation
								JOINT LeftHand
								{
									OFFSET	-25.9733	-1.7949	1.85395
									CHANNELS 3  Xrotation Yrotation Zrotation
									End Site
									{
										OFFSET	-9.47896	-0.655051	0.676554
									}
								}
							}
						}
					}
					JOINT RightShoulder
					{
						OFFSET	4.49929	19.0387	-8.97775
						CHANNELS 3  Xrotation Yrotation Zrotation
						JOINT RightArm
						{
							OFFSET	9.81417	-2.68707	3.44739
							CHANNELS 3  Xrotation Yrotation Zrotation
							JOINT RightForeArm
							{
								OFFSET	33.0157	-1.50689	2.35663
								CHANNELS 3  Xrotation Yrotation Zrotation
								JOINT RightHand
								{
									OFFSET	25.9733	-1.7949	1.85395
									CHANNELS 3  Xrotation Yrotation Zrotation
									End Site
									{
										OFFSET	9.47896	-0.655051	0.676554
									}
								}
							}
						}
					}
				}
			}
		}
	}
	JOINT LeftUpLeg
	{
		OFFSET	-9.2746	-3.40568	-0.68392
		CHANNELS 3  Xrotation Yrotation Zrotation
		JOINT LeftLeg
		{
			OFFSET	-2.10167	-41.1814	-0.643755
			CHANNELS 3  Xrotation Yrotation Zrotation
			JOINT LeftFoot
			{
				OFFSET	-2.05436	-37.8685	3.25669
				CHANNELS 3  Xrotation Yrotation Zrotation
				JOINT LeftToeBase
				{
					OFFSET	0	-4.68304	-12.4382
					CHANNELS 3  Xrotation Yrotation Zrotation
					End Site
					{
						OFFSET	0	-1.87322	-7.49286
					}
				}
			}
		}
	}
	JOINT RightUpLeg
	{
		OFFSET	9.2746	-3.40568	-0.68392
		CHANNELS 3  Xrotation Yrotation Zrotation
		JOINT RightLeg
		{
			OFFSET	2.10167	-41.1814	-0.643755
			CHANNELS 3  Xrotation Yrotation Zrotation
			JOINT RightFoot
			{
				OFFSET	2.05436	-37.8685	3.25669
				CHANNELS 3  Xrotation Yrotation Zrotation
				JOINT RightToeBase
				{
					OFFSET	0	-4.68304	-12.4382
					CHANNELS 3  Xrotation Yrotation Zrotation
					End Site
					{
						OFFSET	0	-1.87322	-7.49286
					}
				}
			}
		}
	}
}
MOTION
Frames: 10
Frame Time: 0.020408
 0 -8.14858 3.02214 -0 0 -0 -0 0 -0 -0 0 -0 -0 0 -0 -0 0 -0 -0 0 -0 -0 0 -0 -0 0 -0 -0 0 -0 -0 0 -0 -0 0 -0 -0 0 -0 -0 0 -0 -0 0 -0 -0 0 -0 -0 0 -0 -0 0 -0 -0 0 -0 -0 0 -0 -0 0 -0 -0 0 -0 -0 0 -0 -0 0 -0 -0 0 -0
 -69.6239 83.2264 -288.739 41.228 -114.263 40.5702 180 -179.989 178.408 14.9325 -0.0226379 -2.65278 13.4956 -0.0679136 -2.65278 5.65087 -0.0113267 -1.59167 15.0212 -0.137511 -0.512426 28.2535 -16.4913 -6.15487 8.64 -6.48567 -3.39868 1.18167 -20.0612 2.54632 89.8333 -114.038 -169.917 172.483 -143.842 173.699 -0 1.23142 21.87 170.134 -158.136 -165.613 0.513604 -11.1678 -89.7404 123.189 176.053 -170.902 -0 26.6463 -19.825 34.4635 -0.0630905 -7.31919 163.142 177.431 -175.37 141.413 173.606 179.907 179.83 180 -180 26.9499 25.1087 -20.5552 143.304 -162.879 -179.659 25.2278 0.0147279 11.459 178.951 180 -180
 -71.1052 84.1809 -288.691 35.431 -114.758 33.7196 180 -179.996 178.439 14.8825 -0.00785657 -2.60149 13.4366 -0.0235697 -2.60149 5.58608 -0.00393088 -1.56089 15.0771 -0.135343 -0.502386 28.4513 -16.5191 -6.16355 8.70073 -6.38129 -3.41797 1.19295 -21.2397 2.57689 89.9048 -114.672 -170.171 172.371 -144.09 173.903 -0 1.25506 21.9318 171.042 -158.635 -166.871 1.39424 -11.0649 -89.3426 122.914 176.687 -171.278 -0 25.9285 -20.0289 36.6122 0.0672825 -5.6654 163.401 177.195 -178.952 179.723 -179.783 179.853 179.861 180 -180 27.6221 25.1802 -19.8468 144.321 -162.561 -179.745 25.4577 -0.0150551 11.4697 178.936 180 -180
 -71.017 83.8888 -289.092 37.7414 -115.143 36.1722 0.000510801 0.0179914 -1.62627 14.926 0.035957 -2.71045 13.4896 0.107871 -2.71046 5.63063 0.0179914 -1.62627 15.0527 -0.140788 -0.523489 28.3423 -16.3542 -6.154 8.66679 -6.29018 -3.39662 1.25979 -21.7158 2.7237 90.2679 -114.482 -169.887 172.24 -143.895 173.846 -0 1.31739 21.9287 171.543 -158.774 -167.605 1.92556 -10.9467 -88.5097 122.558 176.893 -171.672 -0 25.1975 -20.1773 36.2214 0.850308 -4.15285 162.947 176.5 179.759 20.2782 -0.0808993 -0.308634 179.877 180 -180 28.2547 24.69 -19.4631 143.479 -161.826 -179.88 24.0608 0.0724805 11.4738 178.92 180 -180
 -70.8208 83.8245 -289.314 38.7365 -114.998 37.0755 0.000311322 0.0110637 -1.61183 14.8817 0.0221118 -2.68638 13.4426 0.0663353 -2.68638 5.59714 0.0110637 -1.61183 15.048 -0.139496 -0.518852 28.3457 -16.3203 -6.24011 8.67209 -6.09944 -3.42843 1.31507 -22.3617 2.84632 90.2923 -114.052 -169.729 172.146 -143.94 173.657 -0 1.40976 21.813 171.531 -157.965 -167.788 2.59823 -10.8459 -87.6675 121.945 176.916 -172.248 -0 24.5476 -20.5784 36.2735 1.24656 -3.51521 162.973 175.887 179.781 36.3615 -0.0771441 -0.717983 179.903 180 -180 28.4761 23.8598 -18.9609 142.779 -161.338 179.978 23.0629 0.0823862 11.4677 178.907 180 -180
 -70.7522 83.8265 -289.501 39.6604 -114.66 37.9123 0.00025272 0.00913663 -1.5844 14.8364 0.0182608 -2.64067 13.3967 0.0547825 -2.64068 5.56663 0.00913663 -1.5844 15.0338 -0.136996 -0.510058 28.3385 -16.2713 -6.26886 8.67129 -6.00109 -3.43622 1.35802 -23.211 2.94285 90.0318 -113.597 -169.948 172.098 -144.166 173.602 -0 1.45149 21.6782 171.557 -157.425 -167.964 3.01224 -10.387 -87.2385 121.45 177.065 -172.552 -0 24.5448 -21.0396 36.8417 1.48285 -3.09077 161.873 175.084 179.87 39.0303 -0.0876081 -1.26249 179.919 180 -180 28.4958 23.2593 -18.3607 142.274 -161.123 -179.965 22.7267 0.0202802 11.4984 178.897 180 -180
 -70.4876 83.7381 -289.611 39.9096 -114.466 38.1873 0.000116172 0.00416337 -1.59833 14.7936 0.00832098 -2.66388 13.3596 0.024963 -2.66388 5.5579 0.00416337 -1.59833 14.9739 -0.137662 -0.514685 28.2217 -16.2419 -6.23169 8.63374 -6.10538 -3.41158 1.37244 -23.8331 2.97631 89.9784 -113.002 -169.681 172.047 -144.283 173.547 -0 1.47764 21.535 171.439 -156.904 -167.921 3.47158 -9.73634 -86.9074 120.909 177.338 -172.717 -0 24.5951 -21.7673 37.2706 1.61445 -2.88405 160.371 174.69 179.953 39.3811 -0.118426 -1.68778 179.924 180 -180 27.7144 22.5407 -17.6939 142.196 -160.786 179.9 23.08 0.0253047 11.4766 178.887 180 -180
 -70.0344 83.6017 -289.694 40.2524 -114.216 38.57 180 -179.998 178.399 14.7597 -0.00421784 -2.66905 13.327 -0.0126535 -2.66905 5.54307 -0.00211039 -1.60143 14.9451 -0.13767 -0.515752 28.2024 -16.2847 -6.12566 8.62266 -6.35006 -3.37152 1.38844 -24.2302 3.01225 89.9479 -112.382 -169.283 172.034 -144.264 173.514 -0 1.41264 21.4565 171.247 -156.526 -167.739 3.7719 -9.09874 -86.7367 120.462 177.473 -172.779 -0 24.7905 -22.44 37.6893 1.69351 -2.73769 159.008 174.431 -179.914 39.365 -0.143881 -2.0169 179.925 180 -180 26.9558 21.9129 -17.2446 142.246 -160.58 179.924 23.6009 0.031314 11.474 178.88 180 -180
 -69.679 83.476 -289.703 40.4266 -113.968 38.8643 180 -179.996 178.392 14.7283 -0.00884936 -2.68028 13.2972 -0.0265481 -2.68028 5.52814 -0.00442778 -1.60817 14.921 -0.138031 -0.51798 28.1888 -16.3295 -6.0398 8.6144 -6.5579 -3.33988 1.40221 -24.6445 3.0433 89.9449 -111.823 -168.889 172.077 -144.211 173.537 -0 1.24811 21.4693 171.043 -156.182 -167.534 3.89128 -8.35182 -86.8415 120.195 177.518 -172.664 -0 25.2182 -22.9894 38.0376 1.61816 -2.60408 157.828 174.661 -179.807 39.5075 -0.0897723 -2.19369 179.921 180 -180 26.2653 21.2263 -16.949 142.507 -160.636 -179.812 24.1378 -0.0310868 11.5015 178.867 180 -180
 -69.5695 83.4577 -289.743 40.8696 -113.906 39.3968 180 -179.997 178.382 14.7112 -0.0056694 -2.69635 13.2808 -0.0170082 -2.69635 5.51798 -0.00283671 -1.61781 14.9122 -0.138779 -0.521107 28.1901 -16.4038 -6.01589 8.61378 -6.67794 -3.33507 1.40178 -25.2018 3.04362 89.9224 -111.625 -168.847 172.112 -144.102 173.587 -0 1.04699 21.45 170.889 -156.11 -167.328 3.98296 -7.75496 -87.1671 120.095 177.524 -172.399 -0 25.7343 -23.2392 38.2886 1.55578 -2.40208 156.399 174.875 -179.822 40.1562 -0.0383448 -2.35914 179.916 180 -180 25.662 20.691 -16.6829 142.71 -160.857 -179.636 24.1976 -0.0846365 11.5231 178.853 180 -180
